<svg xmlns="http://www.w3.org/2000/svg" xmlns:xlink="http://www.w3.org/1999/xlink" width="300" zoomAndPan="magnify" viewBox="0 0 224.87999 149.999998" height="200" preserveAspectRatio="xMidYMid meet" version="1.2"><defs><clipPath id="218b284eb0"><path d="M 0 0.0390625 L 224.761719 0.0390625 L 224.761719 149.960938 L 0 149.960938 Z M 0 0.0390625 "/></clipPath><clipPath id="62af468157"><path d="M 84.835938 23.183594 L 139.933594 23.183594 L 139.933594 78.28125 L 84.835938 78.28125 Z M 84.835938 23.183594 "/></clipPath><clipPath id="3fb4175e06"><path d="M 111 23.183594 L 114 23.183594 L 114 29 L 111 29 Z M 111 23.183594 "/></clipPath><clipPath id="3d1d1aa43c"><path d="M 84.835938 23.183594 L 123 23.183594 L 123 53 L 84.835938 53 Z M 84.835938 23.183594 "/></clipPath><clipPath id="20a9ec7a8a"><path d="M 84.835938 23.183594 L 115 23.183594 L 115 62 L 84.835938 62 Z M 84.835938 23.183594 "/></clipPath><clipPath id="dca2c59818"><path d="M 84.835938 50 L 91 50 L 91 52 L 84.835938 52 Z M 84.835938 50 "/></clipPath><clipPath id="9bb9d85fec"><path d="M 84.835938 40 L 115 40 L 115 78.28125 L 84.835938 78.28125 Z M 84.835938 40 "/></clipPath><clipPath id="8f47c52c23"><path d="M 84.835938 48 L 123 48 L 123 78.28125 L 84.835938 78.28125 Z M 84.835938 48 "/></clipPath><clipPath id="f65e5f324f"><path d="M 111 72 L 114 72 L 114 78.28125 L 111 78.28125 Z M 111 72 "/></clipPath><clipPath id="bc5045b188"><path d="M 101 48 L 139.933594 48 L 139.933594 78.28125 L 101 78.28125 Z M 101 48 "/></clipPath><clipPath id="2836aee8a8"><path d="M 110 40 L 139.933594 40 L 139.933594 78.28125 L 110 78.28125 Z M 110 40 "/></clipPath><clipPath id="5e65826c75"><path d="M 134 50 L 139.933594 50 L 139.933594 52 L 134 52 Z M 134 50 "/></clipPath><clipPath id="72bb6bfa3c"><path d="M 110 23.183594 L 139.933594 23.183594 L 139.933594 62 L 110 62 Z M 110 23.183594 "/></clipPath><clipPath id="ca1af60db5"><path d="M 101 23.183594 L 139.933594 23.183594 L 139.933594 53 L 101 53 Z M 101 23.183594 "/></clipPath><clipPath id="aa3934ae46"><path d="M 90 23.183594 L 139.933594 23.183594 L 139.933594 78.28125 L 90 78.28125 Z M 90 23.183594 "/></clipPath></defs><g id="bfb86cd367"><g clip-rule="nonzero" clip-path="url(#218b284eb0)"><path style=" stroke:none;fill-rule:nonzero;fill:#ffffff;fill-opacity:1;" d="M 0 0.0390625 L 224.878906 0.0390625 L 224.878906 149.960938 L 0 149.960938 Z M 0 0.0390625 "/><path style=" stroke:none;fill-rule:nonzero;fill:#ebecf0;fill-opacity:1;" d="M 0 0.0390625 L 224.878906 0.0390625 L 224.878906 149.960938 L 0 149.960938 Z M 0 0.0390625 "/></g><g clip-rule="nonzero" clip-path="url(#62af468157)"><path style="fill:none;stroke-width:2;stroke-linecap:butt;stroke-linejoin:miter;stroke:#000000;stroke-opacity:1;stroke-miterlimit:10;" d="M 70.598242 35.798036 C 70.598242 36.938632 70.54248 38.079228 70.430955 39.209685 C 70.31943 40.345211 70.152143 41.470599 69.929093 42.590917 C 69.711112 43.706167 69.4323 44.811277 69.102794 45.90118 C 68.76822 46.991082 68.388021 48.065777 67.95206 49.115125 C 67.516099 50.169542 67.029445 51.198613 66.492098 52.202337 C 65.95475 53.211131 65.36671 54.184439 64.733046 55.132401 C 64.104451 56.080363 63.425162 56.997909 62.70025 57.8749 C 61.975339 58.756961 61.214941 59.603536 60.40892 60.409557 C 59.602899 61.215578 58.756324 61.975976 57.879333 62.700887 C 56.997272 63.425799 56.079726 64.100018 55.131764 64.733683 C 54.183802 65.367347 53.210494 65.955387 52.20677 66.492735 C 51.197976 67.030082 50.168905 67.516736 49.119557 67.952697 C 48.06514 68.388658 46.990445 68.768857 45.900543 69.103431 C 44.81064 69.432937 43.70553 69.70668 42.59028 69.92973 C 41.469962 70.15278 40.344574 70.320067 39.209048 70.431592 C 38.078591 70.543117 36.937995 70.598879 35.802469 70.598879 C 34.661873 70.598879 33.521277 70.543117 32.39082 70.431592 C 31.255294 70.320067 30.129906 70.15278 29.009587 69.92973 C 27.894338 69.70668 26.789228 69.432937 25.699325 69.103431 C 24.609422 68.768857 23.534728 68.388658 22.48031 67.952697 C 21.430962 67.516736 20.401892 67.030082 19.393098 66.492735 C 18.389374 65.955387 17.416065 65.367347 16.468104 64.733683 C 15.520142 64.100018 14.602596 63.425799 13.725605 62.700887 C 12.843544 61.975976 11.996968 61.215578 11.190947 60.409557 C 10.384926 59.603536 9.624529 58.756961 8.899617 57.8749 C 8.174705 56.997909 7.500487 56.080363 6.866822 55.132401 C 6.233158 54.184439 5.645118 53.211131 5.10777 52.202337 C 4.570423 51.198613 4.083769 50.169542 3.647808 49.115125 C 3.211847 48.065777 2.831648 46.991082 2.497073 45.90118 C 2.167568 44.811277 1.888756 43.706167 1.670775 42.590917 C 1.447725 41.470599 1.280438 40.345211 1.168913 39.209685 C 1.057388 38.079228 1.001626 36.938632 1.001626 35.798036 C 1.001626 34.66251 1.057388 33.521914 1.168913 32.391457 C 1.280438 31.255931 1.447725 30.130543 1.670775 29.010224 C 1.888756 27.894975 2.167568 26.789865 2.497073 25.699962 C 2.831648 24.60499 3.211847 23.535365 3.647808 22.480947 C 4.083769 21.431599 4.570423 20.402529 5.10777 19.393735 C 5.645118 18.390011 6.233158 17.411633 6.866822 16.463671 C 7.500487 15.520779 8.174705 14.603233 8.899617 13.721172 C 9.624529 12.844181 10.384926 11.997605 11.190947 11.191584 C 11.996968 10.385563 12.843544 9.620097 13.725605 8.900254 C 14.602596 8.175342 15.520142 7.496054 16.468104 6.86239 C 17.416065 6.233795 18.389374 5.645755 19.393098 5.108407 C 20.401892 4.57106 21.430962 4.084406 22.48031 3.648445 C 23.534728 3.212484 24.609422 2.827216 25.699325 2.49771 C 26.789228 2.168205 27.894338 1.889393 29.009587 1.666343 C 30.129906 1.448362 31.255294 1.281075 32.39082 1.16955 C 33.521277 1.058025 34.661873 1.002263 35.802469 1.002263 C 36.937995 1.002263 38.078591 1.058025 39.209048 1.16955 C 40.344574 1.281075 41.469962 1.448362 42.59028 1.666343 C 43.70553 1.889393 44.81064 2.168205 45.900543 2.49771 C 46.990445 2.827216 48.06514 3.212484 49.119557 3.648445 C 50.168905 4.084406 51.197976 4.57106 52.20677 5.108407 C 53.210494 5.645755 54.183802 6.233795 55.131764 6.86239 C 56.079726 7.496054 56.997272 8.175342 57.879333 8.900254 C 58.756324 9.620097 59.602899 10.385563 60.40892 11.191584 C 61.214941 11.997605 61.975339 12.844181 62.70025 13.721172 C 63.425162 14.603233 64.104451 15.520779 64.733046 16.463671 C 65.36671 17.411633 65.95475 18.390011 66.492098 19.393735 C 67.029445 20.402529 67.516099 21.431599 67.95206 22.480947 C 68.388021 23.535365 68.76822 24.60499 69.102794 25.699962 C 69.4323 26.789865 69.711112 27.894975 69.929093 29.010224 C 70.152143 30.130543 70.31943 31.255931 70.430955 32.391457 C 70.54248 33.521914 70.598242 34.66251 70.598242 35.798036 Z M 70.598242 35.798036 " transform="matrix(0.770568,0,0,0.770568,84.837555,23.18472)"/></g><g clip-rule="nonzero" clip-path="url(#3fb4175e06)"><path style="fill:none;stroke-width:2;stroke-linecap:butt;stroke-linejoin:miter;stroke:#000000;stroke-opacity:1;stroke-miterlimit:10;" d="M 35.802469 1.002263 L 35.802469 6.19831 " transform="matrix(0.770568,0,0,0.770568,84.837555,23.18472)"/></g><g clip-rule="nonzero" clip-path="url(#3d1d1aa43c)"><path style="fill:none;stroke-width:2;stroke-linecap:butt;stroke-linejoin:miter;stroke:#000000;stroke-opacity:1;stroke-miterlimit:10;" d="M 18.399512 5.701517 L 21.000071 10.197999 " transform="matrix(0.770568,0,0,0.770568,84.837555,23.18472)"/></g><g clip-rule="nonzero" clip-path="url(#20a9ec7a8a)"><path style="fill:none;stroke-width:2;stroke-linecap:butt;stroke-linejoin:miter;stroke:#000000;stroke-opacity:1;stroke-miterlimit:10;" d="M 5.70088 18.400149 L 10.202431 21.000708 " transform="matrix(0.770568,0,0,0.770568,84.837555,23.18472)"/></g><g clip-rule="nonzero" clip-path="url(#dca2c59818)"><path style="fill:none;stroke-width:2;stroke-linecap:butt;stroke-linejoin:miter;stroke:#000000;stroke-opacity:1;stroke-miterlimit:10;" d="M 1.001626 35.798036 L 6.197673 35.798036 " transform="matrix(0.770568,0,0,0.770568,84.837555,23.18472)"/></g><g clip-rule="nonzero" clip-path="url(#9bb9d85fec)"><path style="fill:none;stroke-width:2;stroke-linecap:butt;stroke-linejoin:miter;stroke:#000000;stroke-opacity:1;stroke-miterlimit:10;" d="M 5.70088 53.099606 L 10.202431 50.499048 " transform="matrix(0.770568,0,0,0.770568,84.837555,23.18472)"/></g><g clip-rule="nonzero" clip-path="url(#8f47c52c23)"><path style="fill:none;stroke-width:2;stroke-linecap:butt;stroke-linejoin:miter;stroke:#000000;stroke-opacity:1;stroke-miterlimit:10;" d="M 18.399512 65.798239 L 21.000071 61.301757 " transform="matrix(0.770568,0,0,0.770568,84.837555,23.18472)"/></g><g clip-rule="nonzero" clip-path="url(#f65e5f324f)"><path style="fill:none;stroke-width:2;stroke-linecap:butt;stroke-linejoin:miter;stroke:#000000;stroke-opacity:1;stroke-miterlimit:10;" d="M 35.802469 70.497493 L 35.802469 65.200059 " transform="matrix(0.770568,0,0,0.770568,84.837555,23.18472)"/></g><g clip-rule="nonzero" clip-path="url(#bc5045b188)"><path style="fill:none;stroke-width:2;stroke-linecap:butt;stroke-linejoin:miter;stroke:#000000;stroke-opacity:1;stroke-miterlimit:10;" d="M 53.098969 65.798239 L 50.498411 61.301757 " transform="matrix(0.770568,0,0,0.770568,84.837555,23.18472)"/></g><g clip-rule="nonzero" clip-path="url(#2836aee8a8)"><path style="fill:none;stroke-width:2;stroke-linecap:butt;stroke-linejoin:miter;stroke:#000000;stroke-opacity:1;stroke-miterlimit:10;" d="M 65.797602 53.099606 L 61.30112 50.499048 " transform="matrix(0.770568,0,0,0.770568,84.837555,23.18472)"/></g><g clip-rule="nonzero" clip-path="url(#5e65826c75)"><path style="fill:none;stroke-width:2;stroke-linecap:butt;stroke-linejoin:miter;stroke:#000000;stroke-opacity:1;stroke-miterlimit:10;" d="M 70.501925 35.798036 L 65.199422 35.798036 " transform="matrix(0.770568,0,0,0.770568,84.837555,23.18472)"/></g><g clip-rule="nonzero" clip-path="url(#72bb6bfa3c)"><path style="fill:none;stroke-width:2;stroke-linecap:butt;stroke-linejoin:miter;stroke:#000000;stroke-opacity:1;stroke-miterlimit:10;" d="M 65.797602 18.400149 L 61.30112 21.000708 " transform="matrix(0.770568,0,0,0.770568,84.837555,23.18472)"/></g><g clip-rule="nonzero" clip-path="url(#ca1af60db5)"><path style="fill:none;stroke-width:2;stroke-linecap:butt;stroke-linejoin:miter;stroke:#000000;stroke-opacity:1;stroke-miterlimit:10;" d="M 53.098969 5.701517 L 50.498411 10.197999 " transform="matrix(0.770568,0,0,0.770568,84.837555,23.18472)"/></g><g clip-rule="nonzero" clip-path="url(#aa3934ae46)"><path style="fill:none;stroke-width:2;stroke-linecap:butt;stroke-linejoin:miter;stroke:#000000;stroke-opacity:1;stroke-miterlimit:10;" d="M 35.802469 10.197999 L 35.802469 35.798036 L 51.801225 44.400663 " transform="matrix(0.770568,0,0,0.770568,84.837555,23.18472)"/></g><g style="fill:#000000;fill-opacity:1;"><g transform="translate(56.99722, 107.288164)"><path style="stroke:none" d="M 17.3125 -8.125 C 17.3125 -6.9375 17.113281 -5.832031 16.71875 -4.8125 C 16.320312 -3.800781 15.765625 -2.921875 15.046875 -2.171875 C 14.328125 -1.429688 13.460938 -0.851562 12.453125 -0.4375 C 11.441406 -0.0195312 10.316406 0.1875 9.078125 0.1875 C 7.847656 0.1875 6.726562 -0.0195312 5.71875 -0.4375 C 4.707031 -0.851562 3.835938 -1.429688 3.109375 -2.171875 C 2.390625 -2.921875 1.832031 -3.800781 1.4375 -4.8125 C 1.039062 -5.832031 0.84375 -6.9375 0.84375 -8.125 C 0.84375 -9.320312 1.039062 -10.425781 1.4375 -11.4375 C 1.832031 -12.457031 2.390625 -13.335938 3.109375 -14.078125 C 3.835938 -14.816406 4.707031 -15.394531 5.71875 -15.8125 C 6.726562 -16.226562 7.847656 -16.4375 9.078125 -16.4375 C 9.898438 -16.4375 10.675781 -16.335938 11.40625 -16.140625 C 12.132812 -15.953125 12.800781 -15.679688 13.40625 -15.328125 C 14.019531 -14.984375 14.566406 -14.5625 15.046875 -14.0625 C 15.523438 -13.570312 15.929688 -13.019531 16.265625 -12.40625 C 16.609375 -11.789062 16.867188 -11.117188 17.046875 -10.390625 C 17.222656 -9.671875 17.3125 -8.914062 17.3125 -8.125 Z M 14.21875 -8.125 C 14.21875 -9.019531 14.097656 -9.820312 13.859375 -10.53125 C 13.617188 -11.238281 13.273438 -11.835938 12.828125 -12.328125 C 12.390625 -12.828125 11.851562 -13.207031 11.21875 -13.46875 C 10.59375 -13.726562 9.878906 -13.859375 9.078125 -13.859375 C 8.285156 -13.859375 7.570312 -13.726562 6.9375 -13.46875 C 6.300781 -13.207031 5.757812 -12.828125 5.3125 -12.328125 C 4.875 -11.835938 4.535156 -11.238281 4.296875 -10.53125 C 4.054688 -9.820312 3.9375 -9.019531 3.9375 -8.125 C 3.9375 -7.238281 4.054688 -6.441406 4.296875 -5.734375 C 4.535156 -5.023438 4.875 -4.421875 5.3125 -3.921875 C 5.757812 -3.429688 6.300781 -3.054688 6.9375 -2.796875 C 7.570312 -2.535156 8.285156 -2.40625 9.078125 -2.40625 C 9.878906 -2.40625 10.59375 -2.535156 11.21875 -2.796875 C 11.851562 -3.054688 12.390625 -3.429688 12.828125 -3.921875 C 13.273438 -4.421875 13.617188 -5.023438 13.859375 -5.734375 C 14.097656 -6.441406 14.21875 -7.238281 14.21875 -8.125 Z M 14.21875 -8.125 "/></g></g><g style="fill:#000000;fill-opacity:1;"><g transform="translate(77.768928, 107.288164)"><path style="stroke:none" d="M 13.171875 -13.765625 L 8.265625 -13.765625 L 8.265625 0 L 5.234375 0 L 5.234375 -13.765625 L 0.34375 -13.765625 L 0.34375 -16.25 L 13.171875 -16.25 Z M 13.171875 -13.765625 "/></g></g><g style="fill:#000000;fill-opacity:1;"><g transform="translate(93.864982, 107.288164)"><path style="stroke:none" d="M 4.84375 -13.84375 L 4.84375 -9.03125 L 10.9375 -9.03125 L 10.9375 -6.625 L 4.84375 -6.625 L 4.84375 0 L 1.8125 0 L 1.8125 -16.25 L 12.0625 -16.25 L 12.0625 -13.84375 Z M 4.84375 -13.84375 "/></g></g><g style="fill:#000000;fill-opacity:1;"><g transform="translate(109.196743, 107.288164)"><path style="stroke:none" d="M 11.328125 -2.5 L 11.328125 0 L 1.8125 0 L 1.8125 -16.25 L 4.828125 -16.25 L 4.828125 -2.5 Z M 11.328125 -2.5 "/></g></g><g style="fill:#000000;fill-opacity:1;"><g transform="translate(123.483223, 107.288164)"><path style="stroke:none" d="M 17.3125 -8.125 C 17.3125 -6.9375 17.113281 -5.832031 16.71875 -4.8125 C 16.320312 -3.800781 15.765625 -2.921875 15.046875 -2.171875 C 14.328125 -1.429688 13.460938 -0.851562 12.453125 -0.4375 C 11.441406 -0.0195312 10.316406 0.1875 9.078125 0.1875 C 7.847656 0.1875 6.726562 -0.0195312 5.71875 -0.4375 C 4.707031 -0.851562 3.835938 -1.429688 3.109375 -2.171875 C 2.390625 -2.921875 1.832031 -3.800781 1.4375 -4.8125 C 1.039062 -5.832031 0.84375 -6.9375 0.84375 -8.125 C 0.84375 -9.320312 1.039062 -10.425781 1.4375 -11.4375 C 1.832031 -12.457031 2.390625 -13.335938 3.109375 -14.078125 C 3.835938 -14.816406 4.707031 -15.394531 5.71875 -15.8125 C 6.726562 -16.226562 7.847656 -16.4375 9.078125 -16.4375 C 9.898438 -16.4375 10.675781 -16.335938 11.40625 -16.140625 C 12.132812 -15.953125 12.800781 -15.679688 13.40625 -15.328125 C 14.019531 -14.984375 14.566406 -14.5625 15.046875 -14.0625 C 15.523438 -13.570312 15.929688 -13.019531 16.265625 -12.40625 C 16.609375 -11.789062 16.867188 -11.117188 17.046875 -10.390625 C 17.222656 -9.671875 17.3125 -8.914062 17.3125 -8.125 Z M 14.21875 -8.125 C 14.21875 -9.019531 14.097656 -9.820312 13.859375 -10.53125 C 13.617188 -11.238281 13.273438 -11.835938 12.828125 -12.328125 C 12.390625 -12.828125 11.851562 -13.207031 11.21875 -13.46875 C 10.59375 -13.726562 9.878906 -13.859375 9.078125 -13.859375 C 8.285156 -13.859375 7.570312 -13.726562 6.9375 -13.46875 C 6.300781 -13.207031 5.757812 -12.828125 5.3125 -12.328125 C 4.875 -11.835938 4.535156 -11.238281 4.296875 -10.53125 C 4.054688 -9.820312 3.9375 -9.019531 3.9375 -8.125 C 3.9375 -7.238281 4.054688 -6.441406 4.296875 -5.734375 C 4.535156 -5.023438 4.875 -4.421875 5.3125 -3.921875 C 5.757812 -3.429688 6.300781 -3.054688 6.9375 -2.796875 C 7.570312 -2.535156 8.285156 -2.40625 9.078125 -2.40625 C 9.878906 -2.40625 10.59375 -2.535156 11.21875 -2.796875 C 11.851562 -3.054688 12.390625 -3.429688 12.828125 -3.921875 C 13.273438 -4.421875 13.617188 -5.023438 13.859375 -5.734375 C 14.097656 -6.441406 14.21875 -7.238281 14.21875 -8.125 Z M 14.21875 -8.125 "/></g></g><g style="fill:#000000;fill-opacity:1;"><g transform="translate(144.254931, 107.288164)"><path style="stroke:none" d="M 23.4375 -16.25 L 18.390625 0 L 15.65625 0 L 12.109375 -11.109375 C 12.015625 -11.378906 11.925781 -11.707031 11.84375 -12.09375 C 11.789062 -11.90625 11.742188 -11.726562 11.703125 -11.5625 C 11.660156 -11.40625 11.613281 -11.253906 11.5625 -11.109375 L 7.96875 0 L 5.234375 0 L 0.1875 -16.25 L 2.71875 -16.25 C 2.976562 -16.25 3.195312 -16.1875 3.375 -16.0625 C 3.550781 -15.945312 3.671875 -15.785156 3.734375 -15.578125 L 6.5 -5.84375 C 6.5625 -5.601562 6.617188 -5.34375 6.671875 -5.0625 C 6.722656 -4.78125 6.78125 -4.488281 6.84375 -4.1875 C 6.90625 -4.5 6.972656 -4.789062 7.046875 -5.0625 C 7.117188 -5.34375 7.195312 -5.601562 7.28125 -5.84375 L 10.46875 -15.578125 C 10.53125 -15.742188 10.644531 -15.894531 10.8125 -16.03125 C 10.988281 -16.175781 11.207031 -16.25 11.46875 -16.25 L 12.359375 -16.25 C 12.617188 -16.25 12.832031 -16.1875 13 -16.0625 C 13.164062 -15.9375 13.285156 -15.773438 13.359375 -15.578125 L 16.546875 -5.84375 C 16.703125 -5.382812 16.84375 -4.847656 16.96875 -4.234375 C 17.070312 -4.828125 17.179688 -5.363281 17.296875 -5.84375 L 20.0625 -15.578125 C 20.113281 -15.753906 20.226562 -15.910156 20.40625 -16.046875 C 20.59375 -16.179688 20.8125 -16.25 21.0625 -16.25 Z M 23.4375 -16.25 "/></g></g><g style="fill:#000000;fill-opacity:1;"><g transform="translate(78.224597, 123.929314)"><path style="stroke:none" d="M 0.421875 0 L 0.421875 -0.625 L 1.3125 -0.84375 L 1.3125 -6.5 L 0.421875 -6.703125 L 0.421875 -7.28125 L 2.359375 -7.34375 L 3.5625 -7.34375 C 4.25 -7.34375 4.796875 -7.1875 5.203125 -6.875 C 5.609375 -6.570312 5.8125 -6.113281 5.8125 -5.5 C 5.8125 -4.601562 5.359375 -4.039062 4.453125 -3.8125 C 5.003906 -3.675781 5.410156 -3.460938 5.671875 -3.171875 C 5.941406 -2.878906 6.078125 -2.519531 6.078125 -2.09375 C 6.078125 -0.695312 5.1875 0 3.40625 0 Z M 2.359375 -3.40625 L 2.359375 -0.84375 L 3.453125 -0.84375 C 4.472656 -0.84375 4.984375 -1.242188 4.984375 -2.046875 C 4.984375 -2.546875 4.828125 -2.894531 4.515625 -3.09375 C 4.210938 -3.300781 3.753906 -3.40625 3.140625 -3.40625 Z M 2.359375 -6.5 L 2.359375 -4.1875 L 3.140625 -4.1875 C 3.628906 -4.1875 4.015625 -4.285156 4.296875 -4.484375 C 4.578125 -4.691406 4.71875 -4.984375 4.71875 -5.359375 C 4.71875 -5.742188 4.601562 -6.03125 4.375 -6.21875 C 4.15625 -6.40625 3.867188 -6.5 3.515625 -6.5 Z M 2.359375 -6.5 "/></g></g><g style="fill:#000000;fill-opacity:1;"><g transform="translate(87.309056, 123.929314)"><path style="stroke:none" d="M 1.9375 0 L 1.9375 -0.625 L 2.828125 -0.84375 L 2.828125 -2.71875 L 0.8125 -6.515625 L 0.109375 -6.703125 L 0.109375 -7.28125 L 2.71875 -7.34375 L 2.71875 -6.703125 L 2.015625 -6.5 L 3.40625 -3.5625 L 4.953125 -6.5 L 4.140625 -6.703125 L 4.140625 -7.28125 L 6.65625 -7.34375 L 6.65625 -6.703125 L 6 -6.515625 L 3.9375 -2.734375 L 3.9375 -0.84375 L 4.828125 -0.625 L 4.828125 0 Z M 1.9375 0 "/></g></g><g style="fill:#000000;fill-opacity:1;"><g transform="translate(96.550843, 123.929314)"><path style="stroke:none" d=""/></g></g><g style="fill:#000000;fill-opacity:1;"><g transform="translate(101.439888, 123.929314)"><path style="stroke:none" d="M 3.09375 0 L 0.859375 -6.5 L 0.046875 -6.703125 L 0.046875 -7.28125 L 2.984375 -7.34375 L 2.984375 -6.703125 L 2.03125 -6.515625 L 3.6875 -1.421875 L 5.4375 -6.5 L 4.453125 -6.703125 L 4.453125 -7.28125 L 7.28125 -7.34375 L 7.28125 -6.703125 L 6.46875 -6.5 L 4.140625 0 Z M 3.09375 0 "/></g></g><g style="fill:#000000;fill-opacity:1;"><g transform="translate(111.258545, 123.929314)"><path style="stroke:none" d="M 3.296875 -0.625 L 3.296875 0 L 0.421875 0 L 0.421875 -0.625 L 1.3125 -0.84375 L 1.3125 -6.5 L 0.421875 -6.703125 L 0.421875 -7.28125 L 3.296875 -7.34375 L 3.296875 -6.703125 L 2.40625 -6.5 L 2.40625 -0.84375 Z M 3.296875 -0.625 "/></g></g><g style="fill:#000000;fill-opacity:1;"><g transform="translate(117.458658, 123.929314)"><path style="stroke:none" d="M 2.625 -0.84375 L 3.828125 -0.84375 C 4.515625 -0.84375 5.050781 -1.078125 5.4375 -1.546875 C 5.832031 -2.023438 6.03125 -2.742188 6.03125 -3.703125 C 6.03125 -4.660156 5.835938 -5.363281 5.453125 -5.8125 C 5.078125 -6.269531 4.550781 -6.5 3.875 -6.5 L 2.625 -6.5 Z M 0.625 0 L 0.625 -0.625 L 1.515625 -0.84375 L 1.515625 -6.5 L 0.625 -6.703125 L 0.625 -7.28125 L 2.625 -7.34375 L 3.9375 -7.34375 C 4.445312 -7.34375 4.90625 -7.265625 5.3125 -7.109375 C 5.726562 -6.953125 6.078125 -6.71875 6.359375 -6.40625 C 6.640625 -6.101562 6.851562 -5.726562 7 -5.28125 C 7.15625 -4.84375 7.234375 -4.335938 7.234375 -3.765625 C 7.234375 -3.191406 7.148438 -2.671875 6.984375 -2.203125 C 6.816406 -1.742188 6.582031 -1.347656 6.28125 -1.015625 C 5.988281 -0.691406 5.628906 -0.441406 5.203125 -0.265625 C 4.773438 -0.0859375 4.300781 0 3.78125 0 Z M 0.625 0 "/></g></g><g style="fill:#000000;fill-opacity:1;"><g transform="translate(127.591974, 123.929314)"><path style="stroke:none" d="M 6.96875 -6.5 L 6.96875 -2.984375 C 6.96875 -1.960938 6.75 -1.191406 6.3125 -0.671875 C 5.882812 -0.148438 5.15625 0.109375 4.125 0.109375 C 3.101562 0.109375 2.378906 -0.128906 1.953125 -0.609375 C 1.523438 -1.085938 1.3125 -1.828125 1.3125 -2.828125 L 1.3125 -6.5 L 0.421875 -6.703125 L 0.421875 -7.28125 L 3.40625 -7.34375 L 3.40625 -6.703125 L 2.40625 -6.5 L 2.40625 -2.828125 C 2.40625 -2.054688 2.535156 -1.519531 2.796875 -1.21875 C 3.066406 -0.925781 3.519531 -0.78125 4.15625 -0.78125 C 4.789062 -0.78125 5.234375 -0.941406 5.484375 -1.265625 C 5.742188 -1.597656 5.875 -2.171875 5.875 -2.984375 L 5.875 -6.5 L 4.875 -6.703125 L 4.875 -7.28125 L 7.859375 -7.34375 L 7.859375 -6.703125 Z M 6.96875 -6.5 "/></g></g><g style="fill:#000000;fill-opacity:1;"><g transform="translate(138.354599, 123.929314)"><path style="stroke:none" d="M 5.71875 0 L 2.25 -5.78125 L 2.25 -0.84375 L 3.25 -0.625 L 3.25 0 L 0.421875 0 L 0.421875 -0.625 L 1.3125 -0.84375 L 1.3125 -6.5 L 0.421875 -6.703125 L 0.421875 -7.28125 L 2.625 -7.34375 L 6.078125 -1.484375 L 6.078125 -6.5 L 5.1875 -6.703125 L 5.1875 -7.28125 L 7.921875 -7.34375 L 7.921875 -6.703125 L 7.03125 -6.5 L 7.03125 0 Z M 5.71875 0 "/></g></g></g></svg>