<svg xmlns="http://www.w3.org/2000/svg" xmlns:xlink="http://www.w3.org/1999/xlink" width="500" zoomAndPan="magnify" viewBox="0 0 375 374.999991" height="500" preserveAspectRatio="xMidYMid meet" version="1.2"><defs><clipPath id="c5da2901f7"><path d="M 150.675781 118.375 L 224.175781 118.375 L 224.175781 191.875 L 150.675781 191.875 Z M 150.675781 118.375 "/></clipPath><clipPath id="e4a487a277"><path d="M 186 118.375 L 189 118.375 L 189 126 L 186 126 Z M 186 118.375 "/></clipPath><clipPath id="d14931b1b1"><path d="M 150.675781 118.375 L 202 118.375 L 202 158 L 150.675781 158 Z M 150.675781 118.375 "/></clipPath><clipPath id="6a04dfe3ea"><path d="M 150.675781 118.375 L 191 118.375 L 191 170 L 150.675781 170 Z M 150.675781 118.375 "/></clipPath><clipPath id="81b431818b"><path d="M 150.675781 154 L 159 154 L 159 157 L 150.675781 157 Z M 150.675781 154 "/></clipPath><clipPath id="f49d3b3502"><path d="M 150.675781 141 L 191 141 L 191 191.875 L 150.675781 191.875 Z M 150.675781 141 "/></clipPath><clipPath id="50531a2ea7"><path d="M 150.675781 152 L 202 152 L 202 191.875 L 150.675781 191.875 Z M 150.675781 152 "/></clipPath><clipPath id="76fa548724"><path d="M 186 184 L 189 184 L 189 191.875 L 186 191.875 Z M 186 184 "/></clipPath><clipPath id="29c570148d"><path d="M 173 152 L 224.175781 152 L 224.175781 191.875 L 173 191.875 Z M 173 152 "/></clipPath><clipPath id="de69e6e97f"><path d="M 184 141 L 224.175781 141 L 224.175781 191.875 L 184 191.875 Z M 184 141 "/></clipPath><clipPath id="5a5a03b3c2"><path d="M 216 154 L 224.175781 154 L 224.175781 157 L 216 157 Z M 216 154 "/></clipPath><clipPath id="820fb79ae0"><path d="M 184 118.375 L 224.175781 118.375 L 224.175781 170 L 184 170 Z M 184 118.375 "/></clipPath><clipPath id="1b02829faf"><path d="M 173 118.375 L 224.175781 118.375 L 224.175781 158 L 173 158 Z M 173 118.375 "/></clipPath><clipPath id="6f14f74a02"><path d="M 158 118.375 L 224.175781 118.375 L 224.175781 191.875 L 158 191.875 Z M 158 118.375 "/></clipPath></defs><g id="d65ea2c19d"><rect x="0" width="375" y="0" height="374.999991" style="fill:#ffffff;fill-opacity:1;stroke:none;"/><rect x="0" width="375" y="0" height="374.999991" style="fill:#ebecf0;fill-opacity:1;stroke:none;"/><g clip-rule="nonzero" clip-path="url(#c5da2901f7)"><path style="fill:none;stroke-width:2;stroke-linecap:butt;stroke-linejoin:miter;stroke:#000000;stroke-opacity:1;stroke-miterlimit:10;" d="M 70.598132 35.798346 C 70.598132 36.938334 70.544933 38.078321 70.430934 39.210709 C 70.320735 40.346896 70.153537 41.471684 69.93314 42.588871 C 69.708942 43.706059 69.431545 44.811847 69.100949 45.902435 C 68.770353 46.993023 68.386557 48.064611 67.949562 49.117199 C 67.516366 50.169787 67.029972 51.199576 66.490378 52.202765 C 65.954584 53.209754 65.36939 54.186343 64.734797 55.132533 C 64.100204 56.082522 63.423812 56.994512 62.70182 57.876102 C 61.976028 58.757692 61.212236 59.601283 60.406645 60.406874 C 59.601054 61.212465 58.757463 61.976257 57.875873 62.702049 C 56.994283 63.424041 56.082293 64.100433 55.132303 64.735026 C 54.186114 65.369619 53.209525 65.954813 52.206336 66.490607 C 51.199347 67.026401 50.169558 67.516596 49.11697 67.949791 C 48.064382 68.386786 46.992793 68.770582 45.902205 69.101178 C 44.811618 69.431774 43.70583 69.709171 42.588642 69.929569 C 41.471454 70.153766 40.346667 70.320965 39.210479 70.431163 C 38.078092 70.545162 36.938105 70.598362 35.798117 70.598362 C 34.66193 70.598362 33.521942 70.545162 32.389555 70.431163 C 31.253367 70.320965 30.12858 70.153766 29.011392 69.929569 C 27.894205 69.709171 26.788417 69.431774 25.697829 69.101178 C 24.607241 68.770582 23.535653 68.386786 22.483064 67.949791 C 21.430476 67.516596 20.400687 67.026401 19.393699 66.490607 C 18.39051 65.954813 17.41392 65.369619 16.467731 64.735026 C 15.517741 64.100433 14.605752 63.424041 13.724161 62.702049 C 12.842571 61.976257 11.99898 61.212465 11.193389 60.406874 C 10.387798 59.601283 9.624007 58.757692 8.898215 57.876102 C 8.176223 56.994512 7.49983 56.082522 6.865237 55.132533 C 6.230644 54.186343 5.645451 53.209754 5.109657 52.202765 C 4.570062 51.199576 4.083668 50.169787 3.650473 49.117199 C 3.213477 48.064611 2.829682 46.993023 2.499085 45.902435 C 2.168489 44.811847 1.891092 43.706059 1.666895 42.588871 C 1.446497 41.471684 1.279299 40.346896 1.1691 39.210709 C 1.055101 38.078321 0.998102 36.938334 0.998102 35.798346 C 0.998102 34.662159 1.055101 33.522171 1.1691 32.389784 C 1.279299 31.253597 1.446497 30.128809 1.666895 29.011621 C 1.891092 27.894434 2.168489 26.788646 2.499085 25.698058 C 2.829682 24.60747 3.213477 23.535882 3.650473 22.483294 C 4.083668 21.430705 4.570062 20.400917 5.109657 19.393928 C 5.645451 18.390739 6.230644 17.41415 6.865237 16.46796 C 7.49983 15.517971 8.176223 14.605981 8.898215 13.72439 C 9.624007 12.8428 10.387798 11.999209 11.193389 11.193618 C 11.99898 10.388027 12.842571 9.620436 13.724161 8.898444 C 14.605752 8.176452 15.517741 7.496259 16.467731 6.865466 C 17.41392 6.230873 18.39051 5.64568 19.393699 5.109886 C 20.400687 4.570292 21.430476 4.083897 22.483064 3.650702 C 23.535653 3.213707 24.607241 2.829911 25.697829 2.499315 C 26.788417 2.168718 27.894205 1.891321 29.011392 1.667124 C 30.12858 1.446726 31.253367 1.279528 32.389555 1.169329 C 33.521942 1.05533 34.66193 0.998331 35.798117 0.998331 C 36.938105 0.998331 38.078092 1.05533 39.210479 1.169329 C 40.346667 1.279528 41.471454 1.446726 42.588642 1.667124 C 43.70583 1.891321 44.811618 2.168718 45.902205 2.499315 C 46.992793 2.829911 48.064382 3.213707 49.11697 3.650702 C 50.169558 4.083897 51.199347 4.570292 52.206336 5.109886 C 53.209525 5.64568 54.186114 6.230873 55.132303 6.865466 C 56.082293 7.496259 56.994283 8.176452 57.875873 8.898444 C 58.757463 9.620436 59.601054 10.388027 60.406645 11.193618 C 61.212236 11.999209 61.976028 12.8428 62.70182 13.72439 C 63.423812 14.605981 64.100204 15.517971 64.734797 16.46796 C 65.36939 17.41415 65.954584 18.390739 66.490378 19.393928 C 67.029972 20.400917 67.516366 21.430705 67.949562 22.483294 C 68.386557 23.535882 68.770353 24.60747 69.100949 25.698058 C 69.431545 26.788646 69.708942 27.894434 69.93314 29.011621 C 70.153537 30.128809 70.320735 31.253597 70.430934 32.389784 C 70.544933 33.522171 70.598132 34.662159 70.598132 35.798346 Z M 70.598132 35.798346 " transform="matrix(1.027972,0,0,1.027972,150.677104,118.376087)"/></g><g clip-rule="nonzero" clip-path="url(#e4a487a277)"><path style="fill:none;stroke-width:2;stroke-linecap:butt;stroke-linejoin:miter;stroke:#000000;stroke-opacity:1;stroke-miterlimit:10;" d="M 35.798117 0.998331 L 35.798117 6.200474 " transform="matrix(1.027972,0,0,1.027972,150.677104,118.376087)"/></g><g clip-rule="nonzero" clip-path="url(#d14931b1b1)"><path style="fill:none;stroke-width:2;stroke-linecap:butt;stroke-linejoin:miter;stroke:#000000;stroke-opacity:1;stroke-miterlimit:10;" d="M 18.39811 5.698879 L 21.001081 10.201829 " transform="matrix(1.027972,0,0,1.027972,150.677104,118.376087)"/></g><g clip-rule="nonzero" clip-path="url(#6a04dfe3ea)"><path style="fill:none;stroke-width:2;stroke-linecap:butt;stroke-linejoin:miter;stroke:#000000;stroke-opacity:1;stroke-miterlimit:10;" d="M 5.69865 18.398339 L 10.2016 21.00131 " transform="matrix(1.027972,0,0,1.027972,150.677104,118.376087)"/></g><g clip-rule="nonzero" clip-path="url(#81b431818b)"><path style="fill:none;stroke-width:2;stroke-linecap:butt;stroke-linejoin:miter;stroke:#000000;stroke-opacity:1;stroke-miterlimit:10;" d="M 0.998102 35.798346 L 6.200244 35.798346 " transform="matrix(1.027972,0,0,1.027972,150.677104,118.376087)"/></g><g clip-rule="nonzero" clip-path="url(#f49d3b3502)"><path style="fill:none;stroke-width:2;stroke-linecap:butt;stroke-linejoin:miter;stroke:#000000;stroke-opacity:1;stroke-miterlimit:10;" d="M 5.69865 53.099555 L 10.2016 50.500384 " transform="matrix(1.027972,0,0,1.027972,150.677104,118.376087)"/></g><g clip-rule="nonzero" clip-path="url(#50531a2ea7)"><path style="fill:none;stroke-width:2;stroke-linecap:butt;stroke-linejoin:miter;stroke:#000000;stroke-opacity:1;stroke-miterlimit:10;" d="M 18.39811 65.799015 L 21.001081 61.299864 " transform="matrix(1.027972,0,0,1.027972,150.677104,118.376087)"/></g><g clip-rule="nonzero" clip-path="url(#76fa548724)"><path style="fill:none;stroke-width:2;stroke-linecap:butt;stroke-linejoin:miter;stroke:#000000;stroke-opacity:1;stroke-miterlimit:10;" d="M 35.798117 70.499563 L 35.798117 65.198621 " transform="matrix(1.027972,0,0,1.027972,150.677104,118.376087)"/></g><g clip-rule="nonzero" clip-path="url(#29c570148d)"><path style="fill:none;stroke-width:2;stroke-linecap:butt;stroke-linejoin:miter;stroke:#000000;stroke-opacity:1;stroke-miterlimit:10;" d="M 53.099326 65.799015 L 50.500155 61.299864 " transform="matrix(1.027972,0,0,1.027972,150.677104,118.376087)"/></g><g clip-rule="nonzero" clip-path="url(#de69e6e97f)"><path style="fill:none;stroke-width:2;stroke-linecap:butt;stroke-linejoin:miter;stroke:#000000;stroke-opacity:1;stroke-miterlimit:10;" d="M 65.798785 53.099555 L 61.299635 50.500384 " transform="matrix(1.027972,0,0,1.027972,150.677104,118.376087)"/></g><g clip-rule="nonzero" clip-path="url(#5a5a03b3c2)"><path style="fill:none;stroke-width:2;stroke-linecap:butt;stroke-linejoin:miter;stroke:#000000;stroke-opacity:1;stroke-miterlimit:10;" d="M 70.499334 35.798346 L 65.198392 35.798346 " transform="matrix(1.027972,0,0,1.027972,150.677104,118.376087)"/></g><g clip-rule="nonzero" clip-path="url(#820fb79ae0)"><path style="fill:none;stroke-width:2;stroke-linecap:butt;stroke-linejoin:miter;stroke:#000000;stroke-opacity:1;stroke-miterlimit:10;" d="M 65.798785 18.398339 L 61.299635 21.00131 " transform="matrix(1.027972,0,0,1.027972,150.677104,118.376087)"/></g><g clip-rule="nonzero" clip-path="url(#1b02829faf)"><path style="fill:none;stroke-width:2;stroke-linecap:butt;stroke-linejoin:miter;stroke:#000000;stroke-opacity:1;stroke-miterlimit:10;" d="M 53.099326 5.698879 L 50.500155 10.201829 " transform="matrix(1.027972,0,0,1.027972,150.677104,118.376087)"/></g><g clip-rule="nonzero" clip-path="url(#6f14f74a02)"><path style="fill:none;stroke-width:2;stroke-linecap:butt;stroke-linejoin:miter;stroke:#000000;stroke-opacity:1;stroke-miterlimit:10;" d="M 35.798117 10.201829 L 35.798117 35.798346 L 51.79974 44.401451 " transform="matrix(1.027972,0,0,1.027972,150.677104,118.376087)"/></g><g style="fill:#000000;fill-opacity:1;"><g transform="translate(113.53685, 230.573848)"><path style="stroke:none" d="M 23.09375 -10.84375 C 23.09375 -9.25 22.832031 -7.773438 22.3125 -6.421875 C 21.789062 -5.066406 21.046875 -3.894531 20.078125 -2.90625 C 19.117188 -1.914062 17.960938 -1.144531 16.609375 -0.59375 C 15.265625 -0.0390625 13.769531 0.234375 12.125 0.234375 C 10.476562 0.234375 8.976562 -0.0390625 7.625 -0.59375 C 6.28125 -1.144531 5.125 -1.914062 4.15625 -2.90625 C 3.195312 -3.894531 2.453125 -5.066406 1.921875 -6.421875 C 1.390625 -7.773438 1.125 -9.25 1.125 -10.84375 C 1.125 -12.4375 1.390625 -13.910156 1.921875 -15.265625 C 2.453125 -16.617188 3.195312 -17.789062 4.15625 -18.78125 C 5.125 -19.769531 6.28125 -20.539062 7.625 -21.09375 C 8.976562 -21.65625 10.476562 -21.9375 12.125 -21.9375 C 13.21875 -21.9375 14.25 -21.804688 15.21875 -21.546875 C 16.195312 -21.296875 17.085938 -20.9375 17.890625 -20.46875 C 18.703125 -20 19.429688 -19.429688 20.078125 -18.765625 C 20.722656 -18.109375 21.269531 -17.367188 21.71875 -16.546875 C 22.164062 -15.722656 22.503906 -14.832031 22.734375 -13.875 C 22.972656 -12.914062 23.09375 -11.90625 23.09375 -10.84375 Z M 18.96875 -10.84375 C 18.96875 -12.03125 18.804688 -13.097656 18.484375 -14.046875 C 18.171875 -14.992188 17.71875 -15.796875 17.125 -16.453125 C 16.539062 -17.109375 15.820312 -17.613281 14.96875 -17.96875 C 14.125 -18.320312 13.175781 -18.5 12.125 -18.5 C 11.0625 -18.5 10.109375 -18.320312 9.265625 -17.96875 C 8.421875 -17.613281 7.695312 -17.109375 7.09375 -16.453125 C 6.5 -15.796875 6.039062 -14.992188 5.71875 -14.046875 C 5.40625 -13.097656 5.25 -12.03125 5.25 -10.84375 C 5.25 -9.65625 5.40625 -8.585938 5.71875 -7.640625 C 6.039062 -6.691406 6.5 -5.890625 7.09375 -5.234375 C 7.695312 -4.585938 8.421875 -4.085938 9.265625 -3.734375 C 10.109375 -3.378906 11.0625 -3.203125 12.125 -3.203125 C 13.175781 -3.203125 14.125 -3.378906 14.96875 -3.734375 C 15.820312 -4.085938 16.539062 -4.585938 17.125 -5.234375 C 17.71875 -5.890625 18.171875 -6.691406 18.484375 -7.640625 C 18.804688 -8.585938 18.96875 -9.65625 18.96875 -10.84375 Z M 18.96875 -10.84375 "/></g></g><g style="fill:#000000;fill-opacity:1;"><g transform="translate(141.24724, 230.573848)"><path style="stroke:none" d="M 17.5625 -18.375 L 11.03125 -18.375 L 11.03125 0 L 6.984375 0 L 6.984375 -18.375 L 0.453125 -18.375 L 0.453125 -21.6875 L 17.5625 -21.6875 Z M 17.5625 -18.375 "/></g></g><g style="fill:#000000;fill-opacity:1;"><g transform="translate(162.720097, 230.573848)"><path style="stroke:none" d="M 6.46875 -18.484375 L 6.46875 -12.0625 L 14.59375 -12.0625 L 14.59375 -8.828125 L 6.46875 -8.828125 L 6.46875 0 L 2.421875 0 L 2.421875 -21.6875 L 16.09375 -21.6875 L 16.09375 -18.484375 Z M 6.46875 -18.484375 "/></g></g><g style="fill:#000000;fill-opacity:1;"><g transform="translate(183.173354, 230.573848)"><path style="stroke:none" d="M 15.125 -3.328125 L 15.125 0 L 2.421875 0 L 2.421875 -21.6875 L 6.453125 -21.6875 L 6.453125 -3.328125 Z M 15.125 -3.328125 "/></g></g><g style="fill:#000000;fill-opacity:1;"><g transform="translate(202.23216, 230.573848)"><path style="stroke:none" d="M 23.09375 -10.84375 C 23.09375 -9.25 22.832031 -7.773438 22.3125 -6.421875 C 21.789062 -5.066406 21.046875 -3.894531 20.078125 -2.90625 C 19.117188 -1.914062 17.960938 -1.144531 16.609375 -0.59375 C 15.265625 -0.0390625 13.769531 0.234375 12.125 0.234375 C 10.476562 0.234375 8.976562 -0.0390625 7.625 -0.59375 C 6.28125 -1.144531 5.125 -1.914062 4.15625 -2.90625 C 3.195312 -3.894531 2.453125 -5.066406 1.921875 -6.421875 C 1.390625 -7.773438 1.125 -9.25 1.125 -10.84375 C 1.125 -12.4375 1.390625 -13.910156 1.921875 -15.265625 C 2.453125 -16.617188 3.195312 -17.789062 4.15625 -18.78125 C 5.125 -19.769531 6.28125 -20.539062 7.625 -21.09375 C 8.976562 -21.65625 10.476562 -21.9375 12.125 -21.9375 C 13.21875 -21.9375 14.25 -21.804688 15.21875 -21.546875 C 16.195312 -21.296875 17.085938 -20.9375 17.890625 -20.46875 C 18.703125 -20 19.429688 -19.429688 20.078125 -18.765625 C 20.722656 -18.109375 21.269531 -17.367188 21.71875 -16.546875 C 22.164062 -15.722656 22.503906 -14.832031 22.734375 -13.875 C 22.972656 -12.914062 23.09375 -11.90625 23.09375 -10.84375 Z M 18.96875 -10.84375 C 18.96875 -12.03125 18.804688 -13.097656 18.484375 -14.046875 C 18.171875 -14.992188 17.71875 -15.796875 17.125 -16.453125 C 16.539062 -17.109375 15.820312 -17.613281 14.96875 -17.96875 C 14.125 -18.320312 13.175781 -18.5 12.125 -18.5 C 11.0625 -18.5 10.109375 -18.320312 9.265625 -17.96875 C 8.421875 -17.613281 7.695312 -17.109375 7.09375 -16.453125 C 6.5 -15.796875 6.039062 -14.992188 5.71875 -14.046875 C 5.40625 -13.097656 5.25 -12.03125 5.25 -10.84375 C 5.25 -9.65625 5.40625 -8.585938 5.71875 -7.640625 C 6.039062 -6.691406 6.5 -5.890625 7.09375 -5.234375 C 7.695312 -4.585938 8.421875 -4.085938 9.265625 -3.734375 C 10.109375 -3.378906 11.0625 -3.203125 12.125 -3.203125 C 13.175781 -3.203125 14.125 -3.378906 14.96875 -3.734375 C 15.820312 -4.085938 16.539062 -4.585938 17.125 -5.234375 C 17.71875 -5.890625 18.171875 -6.691406 18.484375 -7.640625 C 18.804688 -8.585938 18.96875 -9.65625 18.96875 -10.84375 Z M 18.96875 -10.84375 "/></g></g><g style="fill:#000000;fill-opacity:1;"><g transform="translate(229.94255, 230.573848)"><path style="stroke:none" d="M 31.28125 -21.6875 L 24.546875 0 L 20.890625 0 L 16.15625 -14.8125 C 16.019531 -15.175781 15.898438 -15.617188 15.796875 -16.140625 C 15.734375 -15.890625 15.671875 -15.65625 15.609375 -15.4375 C 15.554688 -15.21875 15.492188 -15.007812 15.421875 -14.8125 L 10.640625 0 L 6.96875 0 L 0.25 -21.6875 L 3.625 -21.6875 C 3.976562 -21.6875 4.269531 -21.601562 4.5 -21.4375 C 4.738281 -21.269531 4.898438 -21.050781 4.984375 -20.78125 L 8.671875 -7.796875 C 8.753906 -7.472656 8.832031 -7.125 8.90625 -6.75 C 8.976562 -6.375 9.054688 -5.984375 9.140625 -5.578125 C 9.210938 -5.992188 9.296875 -6.382812 9.390625 -6.75 C 9.492188 -7.125 9.597656 -7.472656 9.703125 -7.796875 L 13.96875 -20.78125 C 14.039062 -21.007812 14.195312 -21.21875 14.4375 -21.40625 C 14.675781 -21.59375 14.960938 -21.6875 15.296875 -21.6875 L 16.484375 -21.6875 C 16.835938 -21.6875 17.125 -21.601562 17.34375 -21.4375 C 17.5625 -21.269531 17.722656 -21.050781 17.828125 -20.78125 L 22.078125 -7.796875 C 22.285156 -7.179688 22.476562 -6.46875 22.65625 -5.65625 C 22.78125 -6.445312 22.921875 -7.160156 23.078125 -7.796875 L 26.78125 -20.78125 C 26.832031 -21.03125 26.976562 -21.242188 27.21875 -21.421875 C 27.46875 -21.597656 27.765625 -21.6875 28.109375 -21.6875 Z M 31.28125 -21.6875 "/></g></g><g style="fill:#000000;fill-opacity:1;"><g transform="translate(141.855123, 252.773904)"><path style="stroke:none" d="M 0.5625 0 L 0.5625 -0.84375 L 1.75 -1.125 L 1.75 -8.6875 L 0.5625 -8.953125 L 0.5625 -9.734375 L 3.15625 -9.796875 L 4.765625 -9.796875 C 5.671875 -9.796875 6.394531 -9.585938 6.9375 -9.171875 C 7.488281 -8.765625 7.765625 -8.15625 7.765625 -7.34375 C 7.765625 -6.144531 7.160156 -5.390625 5.953125 -5.078125 C 6.679688 -4.910156 7.222656 -4.628906 7.578125 -4.234375 C 7.941406 -3.847656 8.125 -3.367188 8.125 -2.796875 C 8.125 -0.929688 6.929688 0 4.546875 0 Z M 3.15625 -4.546875 L 3.15625 -1.125 L 4.625 -1.125 C 5.976562 -1.125 6.65625 -1.660156 6.65625 -2.734375 C 6.65625 -3.398438 6.453125 -3.867188 6.046875 -4.140625 C 5.640625 -4.410156 5.023438 -4.546875 4.203125 -4.546875 Z M 3.15625 -8.6875 L 3.15625 -5.59375 L 4.203125 -5.59375 C 4.859375 -5.59375 5.367188 -5.722656 5.734375 -5.984375 C 6.109375 -6.253906 6.296875 -6.644531 6.296875 -7.15625 C 6.296875 -7.664062 6.144531 -8.046875 5.84375 -8.296875 C 5.550781 -8.554688 5.164062 -8.6875 4.6875 -8.6875 Z M 3.15625 -8.6875 "/></g></g><g style="fill:#000000;fill-opacity:1;"><g transform="translate(153.974198, 252.773904)"><path style="stroke:none" d="M 2.59375 0 L 2.59375 -0.84375 L 3.78125 -1.125 L 3.78125 -3.625 L 1.078125 -8.6875 L 0.140625 -8.953125 L 0.140625 -9.734375 L 3.640625 -9.796875 L 3.640625 -8.953125 L 2.6875 -8.6875 L 4.546875 -4.765625 L 6.609375 -8.6875 L 5.53125 -8.953125 L 5.53125 -9.734375 L 8.890625 -9.796875 L 8.890625 -8.953125 L 8.015625 -8.703125 L 5.25 -3.65625 L 5.25 -1.125 L 6.4375 -0.84375 L 6.4375 0 Z M 2.59375 0 "/></g></g><g style="fill:#000000;fill-opacity:1;"><g transform="translate(166.303158, 252.773904)"><path style="stroke:none" d=""/></g></g><g style="fill:#000000;fill-opacity:1;"><g transform="translate(172.825363, 252.773904)"><path style="stroke:none" d="M 4.125 0 L 1.140625 -8.6875 L 0.0625 -8.953125 L 0.0625 -9.734375 L 3.984375 -9.796875 L 3.984375 -8.953125 L 2.71875 -8.6875 L 4.90625 -1.890625 L 7.25 -8.6875 L 5.953125 -8.953125 L 5.953125 -9.734375 L 9.734375 -9.796875 L 9.734375 -8.953125 L 8.640625 -8.6875 L 5.53125 0 Z M 4.125 0 "/></g></g><g style="fill:#000000;fill-opacity:1;"><g transform="translate(185.923892, 252.773904)"><path style="stroke:none" d="M 4.40625 -0.84375 L 4.40625 0 L 0.5625 0 L 0.5625 -0.84375 L 1.75 -1.125 L 1.75 -8.6875 L 0.5625 -8.953125 L 0.5625 -9.734375 L 4.40625 -9.796875 L 4.40625 -8.953125 L 3.21875 -8.6875 L 3.21875 -1.125 Z M 4.40625 -0.84375 "/></g></g><g style="fill:#000000;fill-opacity:1;"><g transform="translate(194.19512, 252.773904)"><path style="stroke:none" d="M 3.5 -1.125 L 5.109375 -1.125 C 6.035156 -1.125 6.753906 -1.441406 7.265625 -2.078125 C 7.785156 -2.710938 8.046875 -3.664062 8.046875 -4.9375 C 8.046875 -6.226562 7.789062 -7.175781 7.28125 -7.78125 C 6.78125 -8.382812 6.082031 -8.6875 5.1875 -8.6875 L 3.5 -8.6875 Z M 0.84375 0 L 0.84375 -0.84375 L 2.03125 -1.125 L 2.03125 -8.6875 L 0.84375 -8.953125 L 0.84375 -9.734375 L 3.5 -9.796875 L 5.25 -9.796875 C 5.9375 -9.796875 6.550781 -9.691406 7.09375 -9.484375 C 7.644531 -9.273438 8.109375 -8.96875 8.484375 -8.5625 C 8.867188 -8.15625 9.160156 -7.65625 9.359375 -7.0625 C 9.554688 -6.46875 9.65625 -5.789062 9.65625 -5.03125 C 9.65625 -4.257812 9.546875 -3.566406 9.328125 -2.953125 C 9.109375 -2.335938 8.796875 -1.8125 8.390625 -1.375 C 7.992188 -0.9375 7.507812 -0.597656 6.9375 -0.359375 C 6.375 -0.117188 5.742188 0 5.046875 0 Z M 0.84375 0 "/></g></g><g style="fill:#000000;fill-opacity:1;"><g transform="translate(207.713418, 252.773904)"><path style="stroke:none" d="M 9.3125 -8.6875 L 9.3125 -3.984375 C 9.3125 -2.617188 9.019531 -1.585938 8.4375 -0.890625 C 7.863281 -0.203125 6.890625 0.140625 5.515625 0.140625 C 4.140625 0.140625 3.164062 -0.175781 2.59375 -0.8125 C 2.03125 -1.457031 1.75 -2.445312 1.75 -3.78125 L 1.75 -8.6875 L 0.5625 -8.953125 L 0.5625 -9.734375 L 4.546875 -9.796875 L 4.546875 -8.953125 L 3.21875 -8.6875 L 3.21875 -3.78125 C 3.21875 -2.75 3.394531 -2.035156 3.75 -1.640625 C 4.101562 -1.242188 4.707031 -1.046875 5.5625 -1.046875 C 6.40625 -1.046875 6.992188 -1.265625 7.328125 -1.703125 C 7.671875 -2.140625 7.84375 -2.898438 7.84375 -3.984375 L 7.84375 -8.6875 L 6.515625 -8.953125 L 6.515625 -9.734375 L 10.5 -9.796875 L 10.5 -8.953125 Z M 9.3125 -8.6875 "/></g></g><g style="fill:#000000;fill-opacity:1;"><g transform="translate(222.071243, 252.773904)"><path style="stroke:none" d="M 7.625 0 L 3.015625 -7.71875 L 3.015625 -1.125 L 4.34375 -0.84375 L 4.34375 0 L 0.5625 0 L 0.5625 -0.84375 L 1.75 -1.125 L 1.75 -8.6875 L 0.5625 -8.953125 L 0.5625 -9.734375 L 3.5 -9.796875 L 8.125 -1.96875 L 8.125 -8.6875 L 6.9375 -8.953125 L 6.9375 -9.734375 L 10.5625 -9.796875 L 10.5625 -8.953125 L 9.375 -8.6875 L 9.375 0 Z M 7.625 0 "/></g></g></g></svg>